<svg viewBox="0 0 512 512" xmlns="http://www.w3.org/2000/svg">
  <defs>
    <linearGradient id="carBodyGradient" x1="0%" y1="0%" x2="100%" y2="100%">
      <stop offset="0%" style="stop-color:#ffffff;stop-opacity:1" />
      <stop offset="50%" style="stop-color:#e0e0e0;stop-opacity:1" />
      <stop offset="100%" style="stop-color:#c0c0c0;stop-opacity:1" />
    </linearGradient>
    <linearGradient id="accentGradient" x1="0%" y1="0%" x2="100%" y2="0%">
      <stop offset="0%" style="stop-color:#ff6b6b;stop-opacity:1" />
      <stop offset="100%" style="stop-color:#ff4757;stop-opacity:1" />
    </linearGradient>
    <radialGradient id="wheelGradient" cx="50%" cy="50%" r="50%">
      <stop offset="0%" style="stop-color:#ffffff;stop-opacity:1" />
      <stop offset="70%" style="stop-color:#d0d0d0;stop-opacity:1" />
      <stop offset="100%" style="stop-color:#a0a0a0;stop-opacity:1" />
    </radialGradient>
    <filter id="glow">
      <feGaussianBlur stdDeviation="3" result="coloredBlur"/>
      <feMerge> 
        <feMergeNode in="coloredBlur"/>
        <feMergeNode in="SourceGraphic"/>
      </feMerge>
    </filter>
  </defs>
  
  <!-- Background circle -->
  <circle cx="256" cy="256" r="240" fill="none" stroke="#ffffff" stroke-width="8" opacity="0.3"/>
  <circle cx="256" cy="256" r="220" fill="none" stroke="#ffffff" stroke-width="2" opacity="0.5"/>
  
  <!-- Main car silhouette -->
  <g transform="translate(256, 256)">
    <!-- Car body -->
    <path d="M-120 -20 L-100 -60 L-40 -80 L40 -80 L100 -60 L120 -20 L120 40 L100 60 L-100 60 L-120 40 Z" 
          fill="url(#carBodyGradient)" 
          stroke="#ffffff" 
          stroke-width="3"
          filter="url(#glow)"/>
    
    <!-- Car roof -->
    <path d="M-80 -20 L-60 -50 L-20 -60 L20 -60 L60 -50 L80 -20 L80 0 L-80 0 Z" 
          fill="url(#carBodyGradient)" 
          stroke="#ffffff" 
          stroke-width="2"/>
    
    <!-- Windshield -->
    <path d="M-70 -15 L-50 -40 L-15 -50 L15 -50 L50 -40 L70 -15 L70 -5 L-70 -5 Z" 
          fill="#ffffff" 
          opacity="0.8"/>
    
    <!-- Side windows -->
    <rect x="-70" y="-15" width="30" height="25" fill="#ffffff" opacity="0.6"/>
    <rect x="40" y="-15" width="30" height="25" fill="#ffffff" opacity="0.6"/>
    
    <!-- Headlights -->
    <circle cx="-110" cy="-10" r="8" fill="#ffffff" opacity="0.9"/>
    <circle cx="-110" cy="10" r="8" fill="#ffffff" opacity="0.9"/>
    
    <!-- Taillights -->
    <circle cx="110" cy="-10" r="6" fill="url(#accentGradient)"/>
    <circle cx="110" cy="10" r="6" fill="url(#accentGradient)"/>
    
    <!-- Wheels -->
    <circle cx="-70" cy="45" r="18" fill="url(#wheelGradient)" stroke="#ffffff" stroke-width="2"/>
    <circle cx="-70" cy="45" r="12" fill="#ffffff" opacity="0.8"/>
    <circle cx="-70" cy="45" r="6" fill="#a0a0a0"/>
    
    <circle cx="70" cy="45" r="18" fill="url(#wheelGradient)" stroke="#ffffff" stroke-width="2"/>
    <circle cx="70" cy="45" r="12" fill="#ffffff" opacity="0.8"/>
    <circle cx="70" cy="45" r="6" fill="#a0a0a0"/>
    
    <!-- Accent lines -->
    <line x1="-100" y1="20" x2="100" y2="20" stroke="url(#accentGradient)" stroke-width="3" opacity="0.8"/>
    <line x1="-80" y1="30" x2="80" y2="30" stroke="#ffffff" stroke-width="1" opacity="0.6"/>
    
    <!-- Grille -->
    <rect x="-100" y="-15" width="8" height="30" fill="#a0a0a0"/>
    <rect x="-98" y="-10" width="4" height="4" fill="#ffffff"/>
    <rect x="-98" y="-2" width="4" height="4" fill="#ffffff"/>
    <rect x="-98" y="6" width="4" height="4" fill="#ffffff"/>
    
    <!-- Brand emblem -->
    <circle cx="0" cy="-30" r="15" fill="none" stroke="#ffffff" stroke-width="2"/>
    <path d="M-8 -35 L0 -25 L8 -35 M-8 -25 L8 -25" stroke="#ffffff" stroke-width="2" fill="none"/>
  </g>
  
  <!-- Outer design elements -->
  <g transform="translate(256, 256)">
    <!-- Speed lines -->
    <path d="M-200 -100 L-160 -80" stroke="#ffffff" stroke-width="2" opacity="0.4"/>
    <path d="M-200 -80 L-160 -60" stroke="#ffffff" stroke-width="2" opacity="0.4"/>
    <path d="M-200 -60 L-160 -40" stroke="#ffffff" stroke-width="2" opacity="0.4"/>
    
    <path d="M200 -100 L160 -80" stroke="#ffffff" stroke-width="2" opacity="0.4"/>
    <path d="M200 -80 L160 -60" stroke="#ffffff" stroke-width="2" opacity="0.4"/>
    <path d="M200 -60 L160 -40" stroke="#ffffff" stroke-width="2" opacity="0.4"/>
    
    <!-- Corner accents -->
    <circle cx="-180" cy="-180" r="3" fill="url(#accentGradient)"/>
    <circle cx="180" cy="-180" r="3" fill="url(#accentGradient)"/>
    <circle cx="-180" cy="180" r="3" fill="url(#accentGradient)"/>
    <circle cx="180" cy="180" r="3" fill="url(#accentGradient)"/>
  </g>
  
  <!-- Text elements -->
  <text x="256" y="420" text-anchor="middle" font-family="Arial, sans-serif" font-size="24" font-weight="bold" fill="#ffffff" opacity="0.8">DRIVE</text>
  <text x="256" y="445" text-anchor="middle" font-family="Arial, sans-serif" font-size="16" fill="#ffffff" opacity="0.6">MANAGEMENT</text>
</svg>